<svg xmlns="http://www.w3.org/2000/svg" version="1.1" xmlns:xlink="http://www.w3.org/1999/xlink" xmlns:svgjs="http://svgjs.dev/svgjs" width="1500" height="393" viewBox="0 0 1500 393"><g transform="matrix(1,0,0,1,-0.9090909090909918,-0.8413869592159529)"><svg viewBox="0 0 396 104" data-background-color="#ffffff" preserveAspectRatio="xMidYMid meet" height="393" width="1500" xmlns="http://www.w3.org/2000/svg" xmlns:xlink="http://www.w3.org/1999/xlink"><g id="tight-bounds" transform="matrix(1,0,0,1,0.2400000000000091,0.22265710880014922)"><svg viewBox="0 0 395.52 103.5546857823997" height="103.5546857823997" width="395.52"><g><svg viewBox="0 0 658.4144060683718 172.38545948375702" height="103.5546857823997" width="395.52"><g transform="matrix(1,0,0,1,0,2.385046872600526)"><svg viewBox="0 0 395.52 167.61536573855597" height="167.61536573855597" width="395.52"><g id="textblocktransform"><svg viewBox="0 0 395.52 167.61536573855597" height="167.61536573855597" width="395.52" id="textblock"><g><svg viewBox="0 0 395.52 167.61536573855597" height="167.61536573855597" width="395.52"><g transform="matrix(1,0,0,1,0,0)"><svg width="395.52" viewBox="75.25 -35.800000000000004 211.89999999999998 86.80000000000001" height="167.61536573855597" data-palette-color="#a437db"><svg></svg><svg></svg><g class="wordmark-text-0" data-fill-palette-color="primary" id="text-0"><path transform="translate(75.25,0)" d="M25.25-2.15h6.25v2.15h-31.5v-2.15h6.4c-1.6-0.833-3.067-1.867-4.4-3.1v0l3.7-4.45c3.533 3.067 7.2 4.6 11 4.6v0c1.9 0 3.41-0.41 4.53-1.23 1.113-0.813 1.67-1.897 1.67-3.25 0-1.347-0.523-2.397-1.57-3.15-1.053-0.747-2.863-1.43-5.43-2.05-2.567-0.613-4.517-1.18-5.85-1.7-1.333-0.513-2.517-1.187-3.55-2.02v0c-2.067-1.567-3.1-3.967-3.1-7.2 0-3.233 1.177-5.727 3.53-7.48 2.347-1.747 5.253-2.62 8.72-2.62v0c2.233 0 4.45 0.367 6.65 1.1 2.2 0.733 4.1 1.767 5.7 3.1v0l-3.15 4.45c-1.033-0.933-2.433-1.7-4.2-2.3-1.767-0.6-3.507-0.9-5.22-0.9-1.72 0-3.13 0.35-4.23 1.05-1.1 0.7-1.65 1.757-1.65 3.17 0 1.42 0.55 2.503 1.65 3.25 1.1 0.753 3.443 1.563 7.03 2.43 3.58 0.867 6.28 2.083 8.1 3.65 1.813 1.567 2.72 3.767 2.72 6.6v0c0 3.433-1.267 6.117-3.8 8.05zM61.75-2.15h6.55v2.15h-36.8v-2.15h11.1c-2.633-1.567-4.707-3.7-6.22-6.4-1.52-2.7-2.28-5.75-2.28-9.15v0c0-5.133 1.773-9.433 5.32-12.9 3.553-3.467 8.04-5.2 13.46-5.2 5.413 0 9.937 2 13.57 6v0l-3.75 4.1c-1.667-1.6-3.24-2.717-4.72-3.35-1.487-0.633-3.23-0.95-5.23-0.95v0c-3.533 0-6.5 1.14-8.9 3.42-2.4 2.287-3.6 5.207-3.6 8.76 0 3.547 1.193 6.51 3.58 8.89 2.38 2.387 5.203 3.58 8.47 3.58v0c2.033 0 3.783-0.343 5.25-1.03 1.467-0.68 3-1.77 4.6-3.27v0l3.8 3.9c-1.467 1.6-2.867 2.8-4.2 3.6zM101.1-2.15h4.85v2.15h-10.8l-8.35-11.75h-7.75v11.75h-10.75v-2.15h4.85v-32.8h13c5.333 0 9.15 0.9 11.45 2.7 2.3 1.8 3.45 4.683 3.45 8.65v0c0 5.767-2.517 9.4-7.55 10.9v0zM86.4-17.1c3.333 0 5.6-0.517 6.8-1.55 1.2-1.033 1.8-2.693 1.8-4.98 0-2.28-0.617-3.847-1.85-4.7-1.233-0.847-3.433-1.27-6.6-1.27v0h-7.5v12.5zM104.7-2.15h4.85v-32.8h24.55v5.55h-18.65v9.25h16.75v5.25h-16.75v9.35h19.25v3.4h4.85v2.15h-34.85zM137.4-2.15h4.85v-32.8h24.55v5.55h-18.65v9.25h16.75v5.25h-16.75v9.35h19.25v3.4h4.85v2.15h-34.85zM170.1-2.15h4.85v-32.8h5.9l20.3 26.1v-26.1h5.9v32.8h4.85v2.15h-11.25l-19.8-25.5v25.5h-10.75z" fill="#a437db" fill-rule="nonzero" stroke="none" stroke-width="1" stroke-linecap="butt" stroke-linejoin="miter" stroke-miterlimit="10" stroke-dasharray="" stroke-dashoffset="0" font-family="none" font-weight="none" font-size="none" text-anchor="none" style="mix-blend-mode: normal" data-fill-palette-color="primary" opacity="1"></path><path transform="translate(90.6,44.9)" d="M25.25-2.15h6.25v2.15h-31.5v-2.15h6.4c-1.6-0.833-3.067-1.867-4.4-3.1v0l3.7-4.45c3.533 3.067 7.2 4.6 11 4.6v0c1.9 0 3.41-0.41 4.53-1.23 1.113-0.813 1.67-1.897 1.67-3.25 0-1.347-0.523-2.397-1.57-3.15-1.053-0.747-2.863-1.43-5.43-2.05-2.567-0.613-4.517-1.18-5.85-1.7-1.333-0.513-2.517-1.187-3.55-2.02v0c-2.067-1.567-3.1-3.967-3.1-7.2 0-3.233 1.177-5.727 3.53-7.48 2.347-1.747 5.253-2.62 8.72-2.62v0c2.233 0 4.45 0.367 6.65 1.1 2.2 0.733 4.1 1.767 5.7 3.1v0l-3.15 4.45c-1.033-0.933-2.433-1.7-4.2-2.3-1.767-0.6-3.507-0.9-5.22-0.9-1.72 0-3.13 0.35-4.23 1.05-1.1 0.7-1.65 1.757-1.65 3.17 0 1.42 0.55 2.503 1.65 3.25 1.1 0.753 3.443 1.563 7.03 2.43 3.58 0.867 6.28 2.083 8.1 3.65 1.813 1.567 2.72 3.767 2.72 6.6v0c0 3.433-1.267 6.117-3.8 8.05zM42.25-2.15h23.45v2.15h-34.2v-2.15h4.85v-32.8h12c5.3 0 9.167 1.017 11.6 3.05 2.433 2.033 3.65 5.167 3.65 9.4 0 4.233-1.24 7.333-3.72 9.3-2.487 1.967-6.297 2.95-11.43 2.95v0h-6.2zM49.1-15.6c3.267 0 5.493-0.627 6.68-1.88 1.18-1.247 1.77-3.08 1.77-5.5 0-2.413-0.75-4.12-2.25-5.12-1.5-1-3.85-1.5-7.05-1.5v0h-6v14zM101.85-2.15h5.8v2.15h-11.15l-3.5-7.95h-17.5l-3.5 7.95h-11.15v-2.15h5.8l14.45-32.8h6.3zM77.9-13.4h12.7l-6.35-14.4zM135.6-2.15h4.85v2.15h-10.8l-8.35-11.75h-7.75v11.75h-10.75v-2.15h4.85v-32.8h13c5.333 0 9.15 0.9 11.45 2.7 2.3 1.8 3.45 4.683 3.45 8.65v0c0 5.767-2.517 9.4-7.55 10.9v0zM120.9-17.1c3.333 0 5.6-0.517 6.8-1.55 1.2-1.033 1.8-2.693 1.8-4.98 0-2.28-0.617-3.847-1.85-4.7-1.233-0.847-3.433-1.27-6.6-1.27v0h-7.5v12.5zM169.75-2.15h11.45v2.15h-18.05v6.1h-5.9v-6.1h-18.05v-2.15h11.4c-2.7-1.6-4.84-3.76-6.42-6.48-1.587-2.713-2.38-5.753-2.38-9.12v0c0-5.133 1.767-9.427 5.3-12.88 3.533-3.447 7.9-5.17 13.1-5.17 5.2 0 9.567 1.723 13.1 5.17 3.533 3.453 5.3 7.747 5.3 12.88v0c0 3.333-0.79 6.373-2.37 9.12-1.587 2.753-3.747 4.913-6.48 6.48zM157.25-5.4v-5.6h5.9v5.6c2.767-0.667 5.027-2.143 6.78-4.43 1.747-2.28 2.62-5.047 2.62-8.3 0-3.247-1.19-6.103-3.57-8.57-2.387-2.467-5.313-3.7-8.78-3.7-3.467 0-6.39 1.233-8.77 3.7-2.387 2.467-3.58 5.323-3.58 8.57 0 3.253 0.877 6.02 2.63 8.3 1.747 2.287 4.003 3.763 6.77 4.43z" fill="#bb84e8" fill-rule="nonzero" stroke="none" stroke-width="1" stroke-linecap="butt" stroke-linejoin="miter" stroke-miterlimit="10" stroke-dasharray="" stroke-dashoffset="0" font-family="none" font-weight="none" font-size="none" text-anchor="none" style="mix-blend-mode: normal" data-fill-palette-color="secondary" opacity="1"></path></g></svg></g></svg></g></svg></g></svg></g><g transform="matrix(1,0,0,1,413.9830460683719,0)"><svg viewBox="0 0 244.43135999999998 172.38545948375702" height="172.38545948375702" width="244.43135999999998"><g><svg xmlns="http://www.w3.org/2000/svg" xmlns:xlink="http://www.w3.org/1999/xlink" version="1.1" x="0" y="0" viewBox="0.5000000000000002 10.9 71.03853870664699 50.1" enable-background="new 0 0 72 72" xml:space="preserve" height="172.38545948375702" width="244.43135999999998" class="icon-icon-0" data-fill-palette-color="accent" id="icon-0"><g fill="#bb84e8" data-fill-palette-color="accent"><path fill="#bb84e8" d="M70.2 10.9H22.8c-0.6 0-1.1 0.4-1.3 1L8.8 59.4c-0.2 0.8 0.4 1.6 1.3 1.6h47.4c0.6 0 1.1-0.4 1.3-1l12.7-47.5C71.7 11.7 71.1 10.9 70.2 10.9zM19.6 53.1l-1 3.7c-0.2 0.6-0.7 1-1.3 1h-3.6c-0.9 0-1.5-0.8-1.3-1.6l1-3.7c0.2-0.6 0.7-1 1.3-1h3.6C19.2 51.4 19.9 52.2 19.6 53.1zM35.2 18.9l1-3.7c0.2-0.6 0.7-1 1.3-1h3.6c0.9 0 1.5 0.8 1.3 1.6l-1 3.7c-0.2 0.6-0.7 1-1.3 1h-3.6C35.6 20.6 34.9 19.8 35.2 18.9zM22.4 18.9l1-3.7c0.2-0.6 0.7-1 1.3-1h3.6c0.9 0 1.5 0.8 1.3 1.6l-1 3.7c-0.2 0.6-0.7 1-1.3 1h-3.6C22.8 20.6 22.2 19.8 22.4 18.9zM32.4 53.1l-1 3.7c-0.2 0.6-0.7 1-1.3 1h-3.6c-0.9 0-1.5-0.8-1.3-1.6l1-3.7c0.2-0.6 0.7-1 1.3-1h3.6C32 51.4 32.6 52.2 32.4 53.1zM45.1 53.1l-1 3.7c-0.2 0.6-0.7 1-1.3 1h-3.6c-0.9 0-1.5-0.8-1.3-1.6l1-3.7c0.2-0.6 0.7-1 1.3-1h3.6C44.7 51.4 45.3 52.2 45.1 53.1zM45.6 37.2l-11.7 9.3c-1.4 1.1-3 0.3-2.6-1.2l5-18.5c0.4-1.5 2.5-2.3 3.2-1.2l6.8 9.3C46.8 35.5 46.5 36.5 45.6 37.2zM47.9 18.9l1-3.7c0.2-0.6 0.7-1 1.3-1h3.6c0.9 0 1.5 0.8 1.3 1.6l-1 3.7c-0.2 0.6-0.7 1-1.3 1h-3.6C48.3 20.6 47.6 19.8 47.9 18.9zM57.8 53.1l-1 3.7c-0.2 0.6-0.7 1-1.3 1h-3.6c-0.9 0-1.5-0.8-1.3-1.6l1-3.7c0.2-0.6 0.7-1 1.3-1h3.6C57.4 51.4 58 52.2 57.8 53.1zM67.8 15.9l-1 3.7c-0.2 0.6-0.7 1-1.3 1h-3.6c-0.9 0-1.5-0.8-1.3-1.6l1-3.7c0.2-0.6 0.7-1 1.3-1h3.6C67.4 14.2 68 15 67.8 15.9z" data-fill-palette-color="accent"></path><path fill="#bb84e8" d="M3.2 24.1h9.4c1 0 1.7-0.8 1.7-1.7 0-1-0.8-1.7-1.7-1.7H3.2c-1 0-1.7 0.8-1.7 1.7C1.5 23.4 2.3 24.1 3.2 24.1z" data-fill-palette-color="accent"></path><path fill="#bb84e8" d="M2.2 33.2h7.4c1 0 1.7-0.8 1.7-1.7 0-1-0.8-1.7-1.7-1.7H2.2c-1 0-1.7 0.8-1.7 1.7C0.5 32.4 1.3 33.2 2.2 33.2z" data-fill-palette-color="accent"></path><path fill="#bb84e8" d="M8.4 38.8H3.2c-1 0-1.7 0.8-1.7 1.7 0 1 0.8 1.7 1.7 1.7h5.2c1 0 1.7-0.8 1.7-1.7C10.1 39.6 9.3 38.8 8.4 38.8z" data-fill-palette-color="accent"></path><path fill="#bb84e8" d="M5 47.9H2.2c-1 0-1.7 0.8-1.7 1.7 0 1 0.8 1.7 1.7 1.7H5c1 0 1.7-0.8 1.7-1.7C6.7 48.6 6 47.9 5 47.9z" data-fill-palette-color="accent"></path></g></svg></g></svg></g></svg></g><defs></defs></svg><rect width="395.52" height="103.5546857823997" fill="none" stroke="none" visibility="hidden"></rect></g></svg></g></svg>